<svg xmlns="http://www.w3.org/2000/svg" viewBox="0 0 32 32" width="100%" height="100%">
  <defs>
    <filter id="fav-shadow" x="-10%" y="-10%" width="120%" height="120%">
      <feDropShadow dx="0" dy="0.5" stdDeviation="0.5" flood-color="#000000" flood-opacity="0.5"/>
    </filter>
    <style>
      .bracket-stroke {
        stroke: #121212;
        stroke-width: 1.2;
        stroke-linecap: round;
        stroke-linejoin: round;
      }
    </style>
  </defs>

  <rect width="32" height="32" rx="6" fill="#0d0d0d"/>

  <g filter="url(#fav-shadow)" transform="translate(0, -0.5)">
    <path d="M 14.2 11.1 L 9.3 14 L 5.1 11.6 L 10.1 8.7 Z" fill="#6e1f21"/>
    <path class="bracket-stroke" d="M 13.8 12.3 C 14.6 11.8 14.6 10.9 13.8 10.4 L 9.8 8.1 C 9.0 7.6 8.0 8.0 7.7 8.8 L 6.7 11.3 C 6.4 12.1 6.8 13.1 7.6 13.5 Z" fill="#ea4335"/>
    
    <path d="M 14.2 19 L 5.6 14 L 5.6 14.6 L 14.2 19.6 Z" fill="#1d457d"/>
    <path class="bracket-stroke" d="M 13.8 17.4 L 6.7 13.4 C 5.9 12.9 4.9 13.3 4.5 14.1 L 4.0 15.3 C 3.5 16.3 4.0 17.5 5.0 17.9 L 12.5 20.8 C 13.5 21.2 14.5 20.6 14.7 19.6 L 14.7 19.3 C 14.9 18.4 14.5 17.8 13.8 17.4 Z" fill="#4285f4"/>

    <path d="M 17.8 11.1 L 22.7 14 L 26.9 11.6 L 21.9 8.7 Z" fill="#13542b"/>
    <path class="bracket-stroke" d="M 18.2 12.3 C 17.4 11.8 17.4 10.9 18.2 10.4 L 22.2 8.1 C 23.0 7.6 24.0 8.0 24.3 8.8 L 25.3 11.3 C 25.6 12.1 25.2 13.1 24.4 13.5 Z" fill="#34a853"/>
    
    <path d="M 17.8 19 L 26.4 14 L 26.4 14.6 L 17.8 19.6 Z" fill="#755c07"/>
    <path class="bracket-stroke" d="M 18.2 17.4 L 25.3 13.4 C 26.1 12.9 27.1 13.3 27.5 14.1 L 28.0 15.3 C 28.5 16.3 28.0 17.5 27.0 17.9 L 19.5 20.8 C 18.5 21.2 17.5 20.6 17.3 19.6 L 17.3 19.3 C 17.1 18.4 17.5 17.8 18.2 17.4 Z" fill="#fbbc05"/>
  </g>
</svg>
